# Blender v2.74 (sub 0) OBJ File: ''
# www.blender.org
mtllib chess-board.mtl
o Plane
v -16.633699 4.104024 -16.633699
v 16.633699 4.104024 -16.633699
v -16.633699 4.104024 16.633699
v 16.633699 4.104024 16.633699
vt 0.000000 1.000000
vt 0.000000 0.000000
vt 1.000000 0.000000
vt 1.000000 1.000000
vn 0.000000 1.000000 0.000000
usemtl ffffff
s 1
f 1/1/1 3/2/1 4/3/1 2/4/1
o Box
v 17.193874 4.006876 17.193874
v 17.193874 4.006876 -17.193874
v 21.502026 -0.330124 21.502026
v 22.325531 -0.330124 -21.502026
v -17.193874 4.006876 -17.193874
v -17.193874 4.006876 17.193874
v -22.325531 -0.330124 -21.502026
v -21.502026 -0.330124 21.502026
vt 0.000000 1.000000
vt 0.000000 0.000000
vt 1.000000 0.000000
vt 1.000000 1.000000
vn 0.764700 0.642100 0.055000
vn 0.769700 0.638100 0.018300
vn 0.768900 0.639000 -0.023000
vn 0.757700 0.649900 -0.059300
vn -0.757700 0.649900 -0.059300
vn -0.768900 0.639000 -0.023000
vn -0.769700 0.638100 0.018300
vn -0.764700 0.642100 0.055000
vn 0.000000 1.000000 0.000000
vn 0.000000 -1.000000 -0.000000
vn -0.054600 0.620000 0.782700
vn -0.019700 0.612200 0.790500
vn 0.019700 0.612200 0.790500
vn 0.054600 0.620000 0.782700
vn 0.060100 0.622100 -0.780700
vn 0.022000 0.612500 -0.790200
vn -0.022000 0.612500 -0.790200
vn -0.060100 0.622100 -0.780700
usemtl ffffff
s 1
f 5/5/2 7/6/3 8/7/4 6/8/5
f 9/5/6 11/6/7 12/7/8 10/8/9
f 9/5/10 10/6/10 5/7/10 6/8/10
f 12/5/11 11/6/11 8/7/11 7/8/11
f 10/5/12 12/6/13 7/7/14 5/8/15
f 6/5/16 8/6/17 11/7/18 9/8/19
