# Blender v2.74 (sub 0) OBJ File: ''
# www.blender.org
mtllib hexagon-button.mtl
o Cylinder
v -0.500000 -0.025000 0.000000
v -0.250000 -0.025000 -0.433000
v 0.250000 -0.025000 -0.433000
v -0.250000 -0.025000 0.433000
v -0.250000 0.025000 0.433000
v -0.500000 0.025000 0.000000
v -0.250000 0.025000 -0.433000
v 0.250000 0.025000 -0.433000
v 0.500000 0.025000 -0.000000
v 0.500000 -0.025000 -0.000000
v 0.250000 -0.025000 0.433000
v 0.250000 0.025000 0.433000
v 0.000000 -0.025000 0.000000
v 0.000000 0.025000 0.000000
v 0.200001 0.025000 -0.346397
v 0.400000 0.025000 -0.000000
v -0.200001 0.025000 -0.346397
v -0.400000 0.025000 0.000000
v -0.200001 0.025000 0.346397
v 0.200001 0.025000 0.346397
v 0.400000 -0.025000 -0.000000
v 0.200001 -0.025000 -0.346397
v -0.200001 -0.025000 -0.346397
v -0.400000 -0.025000 0.000000
v -0.200001 -0.025000 0.346397
v 0.200001 -0.025000 0.346397
vt 0.500000 0.000000
vt 0.933000 0.250000
vt 0.933000 0.750000
vt 0.500000 1.000000
vt 0.067000 0.750000
vt 0.067000 0.250000
vt 0.500000 0.500000
vt 0.000000 0.000000
vn 0.866000 0.000000 -0.500000
vn -0.000000 0.000000 -1.000000
vn -0.866000 0.000000 -0.500000
vn -0.866000 0.000000 0.500000
vn 0.000000 0.000000 1.000000
vn 0.866000 0.000000 0.500000
vn 0.000000 1.000000 -0.000000
vn 0.000000 -1.000000 -0.000000
usemtl b0b0b0
s 1
f 9/1/1 10/1/1 3/2/1 8/2/1
f 8/2/2 3/2/2 2/3/2 7/3/2
f 7/3/3 2/3/3 1/4/3 6/4/3
f 6/4/4 1/4/4 4/5/4 5/5/4
f 5/5/5 4/5/5 11/6/5 12/6/5
f 12/6/6 11/6/6 10/1/6 9/1/6
f 16/1/7 15/2/7 14/7/7
f 15/2/7 17/3/7 14/7/7
f 17/3/7 18/4/7 14/7/7
f 18/4/7 19/5/7 14/7/7
f 19/5/7 20/6/7 14/7/7
f 20/6/7 16/1/7 14/7/7
f 22/2/8 21/1/8 13/7/8
f 23/3/8 22/2/8 13/7/8
f 24/4/8 23/3/8 13/7/8
f 25/5/8 24/4/8 13/7/8
f 26/6/8 25/5/8 13/7/8
f 21/1/8 26/6/8 13/7/8
f 9/8/7 8/8/7 15/8/7 16/8/7
f 8/8/7 7/8/7 17/8/7 15/8/7
f 7/8/7 6/8/7 18/8/7 17/8/7
f 6/8/7 5/8/7 19/8/7 18/8/7
f 5/8/7 12/8/7 20/8/7 19/8/7
f 12/8/7 9/8/7 16/8/7 20/8/7
f 3/8/8 10/8/8 21/8/8 22/8/8
f 2/8/8 3/8/8 22/8/8 23/8/8
f 1/8/8 2/8/8 23/8/8 24/8/8
f 4/8/8 1/8/8 24/8/8 25/8/8
f 11/8/8 4/8/8 25/8/8 26/8/8
f 10/8/8 11/8/8 26/8/8 21/8/8
